<?xml version="1.0" encoding="UTF-8" standalone="no"?>
<!-- Created with Inkscape (http://www.inkscape.org/) -->

<svg
   width="20"
   height="20"
   viewBox="0 0 20 20"
   version="1.1"
   id="svg5"
   sodipodi:docname="empty.svg"
   inkscape:version="1.1.2 (0a00cf5339, 2022-02-04)"
   xmlns:inkscape="http://www.inkscape.org/namespaces/inkscape"
   xmlns:sodipodi="http://sodipodi.sourceforge.net/DTD/sodipodi-0.dtd"
   xmlns="http://www.w3.org/2000/svg"
   xmlns:svg="http://www.w3.org/2000/svg">
  <sodipodi:namedview
     id="namedview11"
     pagecolor="#ffffff"
     bordercolor="#666666"
     borderopacity="1.0"
     inkscape:pageshadow="2"
     inkscape:pageopacity="0.0"
     inkscape:pagecheckerboard="0"
     showgrid="false"
     inkscape:zoom="34.25"
     inkscape:cx="11.094891"
     inkscape:cy="10.452555"
     inkscape:window-width="1920"
     inkscape:window-height="1007"
     inkscape:window-x="1920"
     inkscape:window-y="0"
     inkscape:window-maximized="1"
     inkscape:current-layer="svg5" />
  <defs
     id="defs2" />
  <g
     aria-label="empty"
     id="text1221"
     style="font-size:6px;line-height:1.25">
    <path
       d="M 2.6320103,7.981 Q 3.0460103,7.981 3.3400103,8.161 Q 3.6400103,8.341 3.7960103,8.671 Q 3.9580103,8.995 3.9580103,9.433 V 9.751 H 1.7560103 Q 1.7680103,10.297 2.0320103,10.585 Q 2.3020103,10.867 2.7820103,10.867 Q 3.0880103,10.867 3.3220103,10.813 Q 3.5620103,10.753 3.8140103,10.645 V 11.107 Q 3.5680103,11.215 3.3280103,11.263 Q 3.0880103,11.317 2.7580103,11.317 Q 2.3020103,11.317 1.9480103,11.131 Q 1.6000103,10.945 1.4020103,10.579 Q 1.2100103,10.207 1.2100103,9.673 Q 1.2100103,9.145 1.3840103,8.767 Q 1.5640103,8.389 1.8820103,8.185 Q 2.2060103,7.981 2.6320103,7.981 Z M 2.6260103,8.413 Q 2.2480103,8.413 2.0260103,8.659 Q 1.8100103,8.899 1.7680103,9.331 H 3.4060103 Q 3.4000103,8.923 3.2140103,8.671 Q 3.0280103,8.413 2.6260103,8.413 Z"
       id="path12365" />
    <path
       d="M 8.3020054,7.981 Q 8.8480054,7.981 9.1180054,8.263 Q 9.3880054,8.539 9.3880054,9.163 V 11.257 H 8.8660054 V 9.187 Q 8.8660054,8.425 8.2120054,8.425 Q 7.7440054,8.425 7.5400054,8.695 Q 7.3420054,8.965 7.3420054,9.481 V 11.257 H 6.8200054 V 9.187 Q 6.8200054,8.425 6.1600054,8.425 Q 5.6740054,8.425 5.4880054,8.725 Q 5.3020054,9.025 5.3020054,9.589 V 11.257 H 4.7740054 V 8.041 H 5.2000054 L 5.2780054,8.479 H 5.3080054 Q 5.4580054,8.227 5.7100054,8.107 Q 5.9680054,7.981 6.2560054,7.981 Q 7.0120054,7.981 7.2400054,8.521 H 7.2700054 Q 7.4320054,8.245 7.7080054,8.113 Q 7.9900054,7.981 8.3020054,7.981 Z"
       id="path12362" />
    <path
       d="M 11.914002,7.981 Q 12.508002,7.981 12.868002,8.395 Q 13.234002,8.809 13.234002,9.643 Q 13.234002,10.465 12.868002,10.891 Q 12.508002,11.317 11.908002,11.317 Q 11.536002,11.317 11.290002,11.179 Q 11.050002,11.035 10.912002,10.849 H 10.876002 Q 10.888002,10.951 10.900002,11.107 Q 10.912002,11.263 10.912002,11.377 V 12.697 H 10.384002 V 8.041 H 10.816002 L 10.888002,8.479 H 10.912002 Q 11.056002,8.269 11.290002,8.125 Q 11.524002,7.981 11.914002,7.981 Z M 11.818002,8.425 Q 11.326002,8.425 11.122002,8.701 Q 10.924002,8.977 10.912002,9.541 V 9.643 Q 10.912002,10.237 11.104002,10.561 Q 11.302002,10.879 11.830002,10.879 Q 12.124002,10.879 12.310002,10.717 Q 12.502002,10.555 12.592002,10.279 Q 12.688002,9.997 12.688002,9.637 Q 12.688002,9.085 12.472002,8.755 Q 12.262002,8.425 11.818002,8.425 Z"
       id="path12359" />
    <path
       d="M 15.148001,10.885 Q 15.268001,10.885 15.394001,10.867 Q 15.520001,10.843 15.598001,10.819 V 11.221 Q 15.514001,11.263 15.358001,11.287 Q 15.202001,11.317 15.058001,11.317 Q 14.806001,11.317 14.590001,11.233 Q 14.380001,11.143 14.248001,10.927 Q 14.116001,10.711 14.116001,10.321 V 8.449 H 13.660001 V 8.197 L 14.122001,7.987 L 14.332001,7.303 H 14.644001 V 8.041 H 15.574001 V 8.449 H 14.644001 V 10.309 Q 14.644001,10.603 14.782001,10.747 Q 14.926001,10.885 15.148001,10.885 Z"
       id="path12356" />
    <path
       d="M 15.73599,8.041 H 16.29999 L 16.99599,9.871 Q 17.08599,10.111 17.15799,10.333 Q 17.22999,10.549 17.26599,10.747 H 17.28999 Q 17.32599,10.597 17.40399,10.357 Q 17.48199,10.111 17.56599,9.865 L 18.21999,8.041 H 18.78999 L 17.40399,11.701 Q 17.23599,12.157 16.96599,12.427 Q 16.70199,12.697 16.23399,12.697 Q 16.08999,12.697 15.98199,12.679 Q 15.87399,12.667 15.79599,12.649 V 12.229 Q 15.86199,12.241 15.95199,12.253 Q 16.04799,12.265 16.14999,12.265 Q 16.42599,12.265 16.59399,12.109 Q 16.76799,11.953 16.86399,11.695 L 17.03199,11.269 Z"
       id="path12353" />
  </g>
</svg>
